<?xml version="1.0" encoding="UTF-8"?>
<!DOCTYPE svg  PUBLIC '-//W3C//DTD SVG 1.1//EN'  'http://www.w3.org/Graphics/SVG/1.1/DTD/svg11.dtd'>
<svg version="1.1" xmlns="http://www.w3.org/2000/svg">
<defs>
<font id="Teko" horiz-adv-x="360">
<font-face font-family="Teko" font-weight="400" ascent="750" bbox="-57 -187 670 815" cap-height="626" descent="-250" panose-1="2 0 0 0 0 0 0 0 0 0" underline-position="-100" underline-thickness="50" unicode-range="U+0020-0491" units-per-em="1000" x-height="488"/>
<missing-glyph/>
<glyph glyph-name="space" horiz-adv-x="145" unicode=" "/>
<glyph d="M50 626h109l-17 -422h-75zM53 0v123h101v-123h-101z" glyph-name="exclam" horiz-adv-x="209" unicode="!"/>
<glyph d="M36 626h83v-223h-83v223zM173 626h83v-223h-83v223z" glyph-name="quotedbl" horiz-adv-x="292" unicode='"'/>
<glyph d="M290 230l30 166h-114l-29 -166h113zM466 396h-66l-30 -166h63v-69h-75l-29 -161h-80l29 161h-113l-29 -161h-81l29 161h-54v69h66l30 166h-62v69h74l29 161h80l-29 -161h114l29 161h80l-29 -161h54v-69z" glyph-name="numbersign" horiz-adv-x="496" unicode="#"/>
<glyph d="M159 356h73q92 0 92 -88v-180q0 -88 -94 -88h-6v-77h-86v77h-5q-93 0 -93 88v92h91v-78q0 -18 6 -23.5t24 -5.5h42q18 0 23.5 5.5t5.5 23.5v153q0 18 -5.5 23.5t-23.5 5.5h-74q-91 0 -91 89v165q0 88 93 88h7v77h86v-77h5q93 0 93 -88v-92h-91v78q0 18 -6 23.5t-24 5.5 h-42q-18 0 -24 -5.5t-6 -23.5v-139q0 -18 6 -23.5t24 -5.5z" glyph-name="dollar" horiz-adv-x="361" unicode="$"/>
<glyph d="M251 549v-184q0 -77 -78 -77h-66q-78 0 -78 77v184q0 39 18.5 58t59.5 19h66q41 0 59.5 -19t18.5 -58zM612 261v-184q0 -77 -77 -77h-67q-78 0 -78 77v184q0 77 78 77h67q77 0 77 -77zM177 377v161q0 17 -5 22t-21 5h-22q-17 0 -21.5 -5t-4.5 -22v-161q0 -18 4.5 -23 t21.5 -5h22q16 0 21 5.5t5 22.5zM538 88v162q0 17 -4.5 22t-21.5 5h-21q-17 0 -22 -5t-5 -22v-162q0 -17 5 -22t22 -5h21q17 0 21.5 5t4.5 22zM429 626h75l-292 -626h-74z" glyph-name="percent" horiz-adv-x="641" unicode="%"/>
<glyph d="M156 71h173l-149 179l-24 -16q-17 -11 -23.5 -22.5t-6.5 -34.5v-77q0 -18 6 -23.5t24 -5.5zM151 527v-91q0 -31 42 -80l6 5q32 21 44.5 38t12.5 46v82q0 18 -6 23.5t-24 5.5h-46q-18 0 -23.5 -5.5t-5.5 -23.5zM339 0h-208q-93 0 -93 88v104q0 33 13 53.5t48 42.5l30 22 q-24 30 -35 45t-22 40t-11 47v96q0 88 94 88h97q92 0 92 -88v-93q0 -51 -18 -80.5t-58 -55.5l-23 -15l115 -141v77h73v-142q0 -8 -2 -22l83 -101h-96l-35 42q-17 -7 -44 -7z" glyph-name="ampersand" horiz-adv-x="461" unicode="&amp;"/>
<glyph d="M36 626h89v-223h-89v223z" glyph-name="quotesingle" horiz-adv-x="161" unicode="'"/>
<glyph d="M47 244v131q0 203 55.5 311t165.5 108h15v-76l-13 -1q-133 -8 -133 -341v-134q0 -333 133 -341l13 -1v-75h-15q-110 0 -165.5 107.5t-55.5 311.5z" glyph-name="parenleft" horiz-adv-x="264" unicode="("/>
<glyph d="M215 375v-131q0 -204 -55.5 -311.5t-165.5 -107.5h-15v75l13 1q133 8 133 341v134q0 333 -133 341l-13 1v76h15q110 0 165.5 -108t55.5 -311z" glyph-name="parenright" horiz-adv-x="264" unicode=")"/>
<glyph d="M123 590v36h75v-36q0 -33 -7 -61q24 15 57 25l33 11l24 -72l-35 -10q-25 -9 -60 -13q20 -16 42 -46l21 -29l-61 -44l-21 30q-21 29 -30 53q-16 -33 -31 -55l-21 -28l-62 44l22 29q21 29 42 46q-27 2 -61 13l-34 11l23 71l34 -11q34 -11 57 -26q-7 28 -7 62z" glyph-name="asterisk" horiz-adv-x="320" unicode="*"/>
<glyph d="M385 350v-74h-136v-151h-90v151h-136v74h136v151h90v-151h136z" glyph-name="plus" horiz-adv-x="408" unicode="+"/>
<glyph d="M32 -140v263h101v-65l-69 -198h-32z" glyph-name="comma" horiz-adv-x="165" unicode=","/>
<glyph d="M48 259v70h218v-70h-218z" glyph-name="hyphen" horiz-adv-x="315" unicode="-"/>
<glyph d="M32 0v123h101v-123h-101z" glyph-name="period" horiz-adv-x="165" unicode="."/>
<glyph d="M275 700h84l-273 -820h-84z" glyph-name="slash" horiz-adv-x="390" unicode="/"/>
<glyph d="M343 538v-450q0 -88 -93 -88h-109q-94 0 -94 88v450q0 88 94 88h109q93 0 93 -88zM252 102v422q0 18 -6 23.5t-24 5.5h-54q-18 0 -23.5 -5.5t-5.5 -23.5v-422q0 -18 5.5 -23.5t23.5 -5.5h54q18 0 24 5.5t6 23.5z" glyph-name="zero" horiz-adv-x="390" unicode="0"/>
<glyph d="M183 626v-626h-91v553h-72v73h163z" glyph-name="one" horiz-adv-x="235" unicode="1"/>
<glyph d="M115 524v-102h-90v116q0 88 93 88h86q94 0 94 -88v-63q0 -70 -35 -137l-135 -265h174v-73h-276v70l153 288q28 53 28 120v46q0 18 -5.5 23.5t-24.5 5.5h-32q-18 0 -24 -5.5t-6 -23.5z" glyph-name="two" horiz-adv-x="328" unicode="2"/>
<glyph d="M119 524v-94h-90v108q0 88 93 88h92q94 0 94 -88v-158q0 -53 -40 -62q40 -9 40 -58v-172q0 -88 -94 -88h-92q-93 0 -93 88v107h90v-93q0 -18 6 -23.5t24 -5.5h39q18 0 24 5.5t6 23.5v150q0 18 -6 23.5t-24 5.5h-75v72h75q18 0 24 5.5t6 23.5v142q0 18 -6 23.5t-24 5.5 h-39q-18 0 -24 -5.5t-6 -23.5z" glyph-name="three" horiz-adv-x="355" unicode="3"/>
<glyph d="M363 198v-74h-56v-124h-87v124h-214v75l180 427h90l-184 -428h128v120h87v-120h56z" glyph-name="four" horiz-adv-x="363" unicode="4"/>
<glyph d="M132 391h97q94 0 94 -88v-215q0 -88 -94 -88h-96q-93 0 -93 88v111h91v-97q0 -18 6 -23.5t24 -5.5h41q18 0 24 5.5t6 23.5v187q0 18 -6 24t-24 6h-160v307h279v-73h-189v-162z" glyph-name="five" horiz-adv-x="358" unicode="5"/>
<glyph d="M250 102v157q0 17 -6 23t-24 6h-83v-186q0 -18 6 -23.5t24 -5.5h53q18 0 24 5.5t6 23.5zM137 360h110q93 0 93 -89v-183q0 -88 -93 -88h-106q-94 0 -94 88v450q0 88 94 88h103q93 0 93 -88v-108h-89v94q0 18 -6 23.5t-24 5.5h-51q-18 0 -24 -5.5t-6 -23.5v-164z" glyph-name="six" horiz-adv-x="382" unicode="6"/>
<glyph d="M286 626v-56l-168 -570h-92l163 551h-183v75h280z" glyph-name="seven" horiz-adv-x="291" unicode="7"/>
<glyph d="M253 379v146q0 17 -5.5 23t-23.5 6h-59q-18 0 -23.5 -6t-5.5 -23v-146q0 -17 5.5 -23t23.5 -6h59q18 0 23.5 6t5.5 23zM253 102v150q0 17 -5.5 23t-23.5 6h-59q-18 0 -23.5 -6t-5.5 -23v-150q0 -18 5.5 -24t23.5 -6h59q18 0 23.5 6t5.5 24zM342 538v-161q0 -53 -39 -62 q39 -11 39 -59v-168q0 -88 -93 -88h-109q-93 0 -93 88v168q0 48 39 59q-39 9 -39 62v161q0 88 93 88h109q93 0 93 -88z" glyph-name="eight" horiz-adv-x="389" unicode="8"/>
<glyph d="M158 327h82v197q0 18 -5.5 23.5t-23.5 5.5h-53q-18 0 -24 -5.5t-6 -23.5v-168q0 -17 6 -23t24 -6zM131 626h106q94 0 94 -88v-450q0 -88 -94 -88h-103q-94 0 -94 88v107h90v-93q0 -18 5.5 -23.5t24.5 -5.5h51q18 0 23.5 5.5t5.5 23.5v154h-109q-93 0 -93 89v193 q0 88 93 88z" glyph-name="nine" horiz-adv-x="378" unicode="9"/>
<glyph d="M32 70v123h101v-123h-101zM32 295v123h101v-123h-101z" glyph-name="colon" horiz-adv-x="165" unicode=":"/>
<glyph d="M32 365v123h101v-123h-101zM32 -140v263h101v-65l-69 -198h-32z" glyph-name="semicolon" horiz-adv-x="165" unicode=";"/>
<glyph d="M391 400l-277 -86l277 -87v-81l-362 122v92l362 120v-80z" glyph-name="less" horiz-adv-x="420" unicode="&lt;"/>
<glyph d="M29 365v76h362v-76h-362zM29 185v76h362v-76h-362z" glyph-name="equal" horiz-adv-x="420" unicode="="/>
<glyph d="M306 314l-277 86v80l362 -120v-92l-362 -122v81z" glyph-name="greater" horiz-adv-x="420" unicode="&gt;"/>
<glyph d="M103 0v123h101v-123h-101zM113 626h96q93 0 93 -87v-182q0 -87 -93 -87h-13l-4 -66h-76l-8 131h75q17 0 22.5 6.5t5.5 23.5v161q0 17 -5.5 23.5t-22.5 6.5h-44q-17 0 -22.5 -6.5t-5.5 -23.5v-72h-91v85q0 87 93 87z" glyph-name="question" horiz-adv-x="342" unicode="?"/>
<glyph d="M233 343q0 86 88 86h27q48 0 61 -39v39h82v-280h44q19 0 24.5 5.5t5.5 23.5v295q0 18 -5.5 24t-24.5 6h-344q-18 0 -23.5 -6t-5.5 -24v-442q0 -17 5.5 -23t23.5 -6h301v-72h-326q-90 0 -90 88v469q0 88 90 88h394q90 0 90 -88v-318q0 -88 -91 -88h-145v51q-7 -51 -66 -51 h-27q-88 0 -88 86v176zM318 332v-154q0 -17 5.5 -23t23.5 -6h29q32 0 32 35v142q0 19 -7.5 26.5t-24.5 7.5h-29q-18 0 -23.5 -5.5t-5.5 -22.5z" glyph-name="at" horiz-adv-x="696" unicode="@"/>
<glyph d="M136 218h109l-57 330zM282 0l-25 145h-132l-23 -145h-90l111 626h131l119 -626h-91z" glyph-name="A" horiz-adv-x="385" unicode="A"/>
<glyph d="M52 626h217q94 0 94 -88v-159q0 -53 -40 -62q40 -10 40 -58v-171q0 -88 -94 -88h-217v626zM272 100v154q0 18 -6 23.5t-24 5.5h-100v-212h100q18 0 24 5.5t6 23.5zM272 383v143q0 18 -6 23.5t-24 5.5h-100v-201h100q18 0 24 5.5t6 23.5z" glyph-name="B" horiz-adv-x="409" unicode="B"/>
<glyph d="M340 430h-92v96q0 18 -5.5 23.5t-23.5 5.5h-51q-18 0 -24 -5.5t-6 -23.5v-427q0 -18 6 -23.5t24 -5.5h51q18 0 23.5 5.5t5.5 23.5v95h92v-106q0 -89 -94 -89h-106q-93 0 -93 89v450q0 88 93 88h106q94 0 94 -88v-108z" glyph-name="C" horiz-adv-x="377" unicode="C"/>
<glyph d="M274 100v426q0 18 -6 23.5t-24 5.5h-99v-484h99q18 0 24 5.5t6 23.5zM54 626h218q93 0 93 -88v-450q0 -88 -93 -88h-218v626z" glyph-name="D" horiz-adv-x="412" unicode="D"/>
<glyph d="M143 73h181v-73h-272v626h265v-73h-174v-193h144v-73h-144v-214z" glyph-name="E" horiz-adv-x="343" unicode="E"/>
<glyph d="M325 553h-182v-206h144v-71h-144v-276h-91v626h273v-73z" glyph-name="F" horiz-adv-x="332" unicode="F"/>
<glyph d="M340 443h-91v83q0 18 -6 23.5t-24 5.5h-51q-18 0 -24 -5.5t-6 -23.5v-427q0 -18 6 -23.5t24 -5.5h51q18 0 24 5.5t6 23.5v153h-50v70h141v-234q0 -89 -93 -89h-107q-93 0 -93 89v450q0 88 93 88h107q93 0 93 -88v-95z" glyph-name="G" horiz-adv-x="382" unicode="G"/>
<glyph d="M275 626h90v-626h-90v275h-133v-275h-90v626h90v-278h133v278z" glyph-name="H" horiz-adv-x="417" unicode="H"/>
<glyph d="M60 626h90v-626h-90v626z" glyph-name="I" horiz-adv-x="210" unicode="I"/>
<glyph d="M14 206h91v-104q0 -18 6 -23.5t24 -5.5h29q18 0 24 5.5t6 23.5v524h91v-538q0 -88 -93 -88h-85q-93 0 -93 88v118z" glyph-name="J" horiz-adv-x="334" unicode="J"/>
<glyph d="M52 0v626h90v-626h-90zM374 626l-132 -314l131 -312h-98l-127 312l129 314h97z" glyph-name="K" horiz-adv-x="384" unicode="K"/>
<glyph d="M142 73h155v-73h-245v626h90v-553z" glyph-name="L" horiz-adv-x="301" unicode="L"/>
<glyph d="M131 0h-79v626h99l107 -388l107 388h99v-626h-79v458l-86 -322h-82l-86 321v-457z" glyph-name="M" horiz-adv-x="516" unicode="M"/>
<glyph d="M275 626h83v-626h-91l-132 452v-452h-83v626h95l128 -439v439z" glyph-name="N" horiz-adv-x="410" unicode="N"/>
<glyph d="M255 102v422q0 18 -6 23.5t-24 5.5h-58q-18 0 -23.5 -5.5t-5.5 -23.5v-422q0 -18 5.5 -23.5t23.5 -5.5h58q18 0 24 5.5t6 23.5zM141 626h111q93 0 93 -88v-450q0 -88 -93 -88h-111q-94 0 -94 88v450q0 88 94 88z" glyph-name="O" horiz-adv-x="393" unicode="O"/>
<glyph d="M260 344v180q0 18 -6 23.5t-24 5.5h-88v-239h88q18 0 24 6t6 24zM52 626h205q93 0 93 -88v-208q0 -88 -93 -88h-115v-242h-90v626z" glyph-name="P" horiz-adv-x="378" unicode="P"/>
<glyph d="M138 524v-422q0 -18 5.5 -23.5t23.5 -5.5h58q18 0 24 5.5t6 23.5v422q0 18 -6 23.5t-24 5.5h-58q-18 0 -23.5 -5.5t-5.5 -23.5zM141 0q-94 0 -94 88v450q0 88 94 88h111q93 0 93 -88v-450q0 -68 -56 -84l71 -95h-96l-66 91h-57z" glyph-name="Q" horiz-adv-x="393" unicode="Q"/>
<glyph d="M142 553v-228h88q18 0 24 5.5t6 23.5v170q0 18 -6 23.5t-24 5.5h-88zM142 253v-253h-90v626h205q93 0 93 -88v-196q0 -76 -67 -87l99 -255h-97l-94 253h-49z" glyph-name="R" horiz-adv-x="396" unicode="R"/>
<glyph d="M232 102v153q0 18 -5.5 23.5t-23.5 5.5h-74q-91 0 -91 89v165q0 88 93 88h98q93 0 93 -88v-92h-91v78q0 18 -6 23.5t-24 5.5h-42q-18 0 -24 -5.5t-6 -23.5v-139q0 -18 6 -23.5t24 -5.5h73q92 0 92 -88v-180q0 -88 -94 -88h-97q-93 0 -93 88v92h91v-78q0 -18 6 -23.5 t24 -5.5h42q18 0 23.5 5.5t5.5 23.5z" glyph-name="S" horiz-adv-x="361" unicode="S"/>
<glyph d="M305 626v-73h-105v-553h-90v553h-105v73h300z" glyph-name="T" horiz-adv-x="310" unicode="T"/>
<glyph d="M257 626h91v-538q0 -88 -94 -88h-111q-94 0 -94 88v538h91v-524q0 -18 6 -23.5t24 -5.5h57q19 0 24.5 5.5t5.5 23.5v524z" glyph-name="U" horiz-adv-x="397" unicode="U"/>
<glyph d="M266 626h93l-113 -626h-128l-113 626h93l83 -543z" glyph-name="V" horiz-adv-x="364" unicode="V"/>
<glyph d="M508 626h91l-100 -626h-125l-70 470l-69 -470h-125l-100 626h93l70 -544l81 544h100l81 -544z" glyph-name="W" horiz-adv-x="609" unicode="W"/>
<glyph d="M235 320l134 -320h-100l-84 238l-84 -238h-97l132 320l-123 306h100l72 -225l73 225h98z" glyph-name="X" horiz-adv-x="373" unicode="X"/>
<glyph d="M229 0h-91v198l-134 428h92l87 -345l82 345h92l-128 -428v-198z" glyph-name="Y" horiz-adv-x="361" unicode="Y"/>
<glyph d="M305 627v-73l-205 -481h200v-73h-292v73l205 481h-194v73h286z" glyph-name="Z" horiz-adv-x="313" unicode="Z"/>
<glyph d="M249 710h-100v-802h100v-73h-191v948h191v-73z" glyph-name="bracketleft" horiz-adv-x="311" unicode="["/>
<glyph d="M31 700h84l273 -820h-84z" glyph-name="backslash" horiz-adv-x="390" unicode="\"/>
<glyph d="M234 783v-948h-190v73h99v802h-99v73h190z" glyph-name="bracketright" horiz-adv-x="311" unicode="]"/>
<glyph d="M187 671h114l133 -354h-94l-96 270l-95 -270h-94z" glyph-name="asciicircum" horiz-adv-x="498" unicode="^"/>
<glyph d="M0 -114v71h474v-71h-474z" glyph-name="underscore" horiz-adv-x="474" unicode="_"/>
<glyph d="M216 651l82 -132h-77l-105 132h100z" glyph-name="grave" horiz-adv-x="421" unicode="`"/>
<glyph d="M158 73h35q18 0 25.5 8t7.5 27v272q0 19 -7.5 27t-25.5 8h-35q-18 0 -24 -5.5t-6 -23.5v-284q0 -18 6 -23.5t24 -5.5zM226 488h90v-488h-90v39q-13 -39 -62 -39h-36q-90 0 -90 88v311q0 89 90 89h36q49 0 62 -39v39z" glyph-name="a" unicode="a"/>
<glyph d="M232 102v285q0 17 -6 23t-24 6h-35q-18 0 -25.5 -8t-7.5 -27v-273q0 -19 7.5 -27t25.5 -8h35q18 0 24 5.5t6 23.5zM196 489h35q91 0 91 -89v-312q0 -88 -91 -88h-35q-49 0 -62 39v-39h-90v669h90v-219q13 39 62 39z" glyph-name="b" unicode="b"/>
<glyph d="M320 334h-89v52q0 18 -6 23.5t-24 5.5h-43q-18 0 -24 -5.5t-6 -23.5v-284q0 -18 6 -23.5t24 -5.5h43q18 0 24 5.5t6 23.5v52h89v-66q0 -88 -94 -88h-95q-93 0 -93 88v311q0 89 93 89h95q94 0 94 -89v-65z" glyph-name="c" horiz-adv-x="351" unicode="c"/>
<glyph d="M158 73h35q18 0 25.5 8t7.5 27v273q0 19 -7.5 27t-25.5 8h-35q-18 0 -24 -6t-6 -23v-285q0 -18 6 -23.5t24 -5.5zM226 669h90v-669h-90v39q-13 -39 -62 -39h-36q-90 0 -90 88v312q0 89 90 89h36q49 0 62 -39v219z" glyph-name="d" unicode="d"/>
<glyph d="M130 282h108v106q0 17 -5.5 23t-23.5 6h-49q-18 0 -24 -6t-6 -23v-106zM135 488h98q94 0 94 -89v-183h-197v-116q0 -17 6 -23t24 -6h46q18 0 24 6t6 24v40h88v-53q0 -88 -93 -88h-96q-93 0 -93 88v311q0 89 93 89z" glyph-name="e" unicode="e"/>
<glyph d="M217 593h-42q-18 0 -24 -5.5t-6 -23.5v-76h72v-73h-72v-415h-90v415h-49v73h49v93q0 88 93 88h69v-76z" glyph-name="f" horiz-adv-x="222" unicode="f"/>
<glyph d="M158 79h35q18 0 25.5 8t7.5 27v266q0 19 -7.5 27t-25.5 8h-35q-18 0 -24 -5.5t-6 -23.5v-278q0 -17 6 -23t24 -6zM226 488h90v-538q0 -88 -94 -88h-167v71h141q18 0 24 6t6 23v83q-13 -39 -62 -39h-36q-90 0 -90 89v304q0 89 90 89h36q49 0 62 -39v39z" glyph-name="g" unicode="g"/>
<glyph d="M196 488h35q91 0 91 -89v-399h-90v386q0 18 -6 23.5t-24 5.5h-35q-18 0 -25.5 -8t-7.5 -27v-380h-90v669h90v-220q13 39 62 39z" glyph-name="h" horiz-adv-x="365" unicode="h"/>
<glyph d="M134 0h-90v488h90v-488zM42 581v89h94v-89h-94z" glyph-name="i" horiz-adv-x="178" unicode="i"/>
<glyph d="M44 -38v526h90v-538q0 -88 -93 -88h-45v71h18q18 0 24 6t6 23zM42 581v89h94v-89h-94z" glyph-name="j" horiz-adv-x="178" unicode="j"/>
<glyph d="M44 0v669h90v-669h-90zM354 488l-112 -233l112 -255h-96l-108 255l108 233h96z" glyph-name="k" horiz-adv-x="357" unicode="k"/>
<glyph d="M134 0h-90v669h90v-669z" glyph-name="l" horiz-adv-x="178" unicode="l"/>
<glyph d="M384 488h35q90 0 90 -89v-399h-90v386q0 18 -5.5 23.5t-23.5 5.5h-36q-32 0 -32 -35v-380h-90v386q0 18 -6 23.5t-24 5.5h-35q-18 0 -25.5 -8t-7.5 -27v-380h-90v488h90v-39q13 39 62 39h35q64 0 83 -45q12 45 70 45z" glyph-name="m" horiz-adv-x="548" unicode="m"/>
<glyph d="M196 488h35q91 0 91 -89v-399h-90v386q0 18 -6 23.5t-24 5.5h-35q-18 0 -25.5 -8t-7.5 -27v-380h-90v488h90v-39q13 39 62 39z" glyph-name="n" horiz-adv-x="365" unicode="n"/>
<glyph d="M242 101v286q0 18 -6 24t-24 6h-55q-18 0 -23.5 -6t-5.5 -24v-286q0 -18 5.5 -24t23.5 -6h55q18 0 24 6t6 24zM131 488h107q93 0 93 -89v-311q0 -88 -93 -88h-107q-92 0 -92 88v311q0 89 92 89z" glyph-name="o" horiz-adv-x="370" unicode="o"/>
<glyph d="M232 102v284q0 18 -6 23.5t-24 5.5h-35q-18 0 -25.5 -8t-7.5 -27v-272q0 -19 7.5 -27t25.5 -8h35q18 0 24 5.5t6 23.5zM196 488h35q91 0 91 -89v-311q0 -88 -91 -88h-35q-49 0 -62 39v-177h-90v626h90v-39q13 39 62 39z" glyph-name="p" unicode="p"/>
<glyph d="M158 73h35q18 0 25.5 8t7.5 27v272q0 19 -7.5 27t-25.5 8h-35q-18 0 -24 -5.5t-6 -23.5v-284q0 -18 6 -23.5t24 -5.5zM226 488h90v-626h-90v177q-13 -39 -62 -39h-36q-90 0 -90 88v311q0 89 90 89h36q49 0 62 -39v39z" glyph-name="q" unicode="q"/>
<glyph d="M213 489h20v-78h-36q-63 0 -63 -74v-337h-90v488h90v-60q8 26 28.5 43.5t50.5 17.5z" glyph-name="r" horiz-adv-x="238" unicode="r"/>
<glyph d="M207 98v81q0 18 -6 23.5t-24 5.5h-51q-93 0 -93 88v103q0 89 93 89h73q94 0 94 -89v-47h-88v38q0 18 -6 23.5t-24 5.5h-24q-18 0 -24 -5.5t-6 -23.5v-84q0 -18 6 -23.5t24 -5.5h52q92 0 92 -89v-100q0 -88 -93 -88h-74q-93 0 -93 88v48h88v-38q0 -18 6 -23.5t24 -5.5h24 q18 0 24 5.5t6 23.5z" glyph-name="s" horiz-adv-x="328" unicode="s"/>
<glyph d="M209 415h-67v-309q0 -18 5.5 -23.5t23.5 -5.5h38v-77h-64q-94 0 -94 88v327h-46v73h46v83h91v-83h67v-73z" glyph-name="t" horiz-adv-x="219" unicode="t"/>
<glyph d="M231 488h90v-488h-90v39q-13 -39 -62 -39h-36q-90 0 -90 88v400h90v-386q0 -18 6 -23.5t24 -5.5h35q18 0 25.5 8t7.5 27v380z" glyph-name="u" horiz-adv-x="365" unicode="u"/>
<glyph d="M4 488h90l64 -412l65 412h90l-90 -488h-129z" glyph-name="v" horiz-adv-x="317" unicode="v"/>
<glyph d="M453 488h85l-90 -488h-119l-58 369l-58 -369h-119l-89 488h85l65 -411l63 411h107l61 -411z" glyph-name="w" horiz-adv-x="543" unicode="w"/>
<glyph d="M216 250l122 -250h-95l-73 169l-71 -169h-94l120 249l-113 239h96l63 -160l62 160h94z" glyph-name="x" horiz-adv-x="342" unicode="x"/>
<glyph d="M116 -138h-60v72h41q43 0 52 33l10 41h-49l-102 480h92l74 -409l69 409h91l-103 -535q-22 -91 -115 -91z" glyph-name="y" horiz-adv-x="342" unicode="y"/>
<glyph d="M278 72v-72h-264v72l169 344h-158v72h251v-72l-170 -344h172z" glyph-name="z" horiz-adv-x="292" unicode="z"/>
<glyph d="M198 682v-251q0 -110 -76 -121q76 -9 76 -118v-254q0 -17 7 -24t25 -7h45v-71h-82q-47 0 -66.5 23t-19.5 67v241q0 56 -20 82t-63 26h-17v70h17q43 0 63 26.5t20 83.5v238q0 90 86 90h82v-71h-45q-18 0 -25 -6.5t-7 -23.5z" glyph-name="braceleft" horiz-adv-x="283" unicode="{"/>
<glyph d="M54 743h87v-861h-87v861z" glyph-name="bar" horiz-adv-x="197" unicode="|"/>
<glyph d="M84 431v251q0 17 -7 23.5t-25 6.5h-45v71h82q47 0 66 -23.5t19 -66.5v-238q0 -57 20 -83.5t64 -26.5h16v-70h-16q-44 0 -64 -26t-20 -82v-241q0 -44 -19 -67t-66 -23h-82v71h45q18 0 25 7t7 24v254q0 109 76 118q-76 11 -76 121z" glyph-name="braceright" horiz-adv-x="283" unicode="}"/>
<glyph d="M344 213q-30 0 -55 12.5t-39 28.5q-37 40 -76 40q-18 0 -24 -8t-6 -25v-47h-83v66q0 81 84 81h37q28 0 52 -12.5t38 -28.5q38 -40 81 -40q17 0 22 7.5t5 26.5v46h83v-65q0 -82 -85 -82h-34z" glyph-name="asciitilde" horiz-adv-x="524" unicode="~"/>
<glyph glyph-name="uni00A0" horiz-adv-x="145" unicode=" "/>
<glyph d="M53 365v123h101v-123h-101zM159 -138h-109l17 422h75z" glyph-name="exclamdown" horiz-adv-x="209" unicode="¡"/>
<glyph d="M320 334h-89v52q0 18 -6 23.5t-24 5.5h-43q-18 0 -24 -5.5t-6 -23.5v-284q0 -18 6 -23.5t24 -5.5h43q18 0 24 5.5t6 23.5v52h89v-66q0 -88 -94 -88h-1v-76h-86v76h-8q-93 0 -93 88v311q0 89 93 89h8v77h86v-77h1q94 0 94 -89v-65z" glyph-name="cent" horiz-adv-x="351" unicode="¢"/>
<glyph d="M364 73v-73h-332v71q27 1 37.5 23t10.5 72v101h-48v71h48v200q0 88 93 88h94q93 0 93 -88v-92h-91v78q0 18 -5.5 23.5t-23.5 5.5h-39q-18 0 -24 -5.5t-6 -23.5v-186h131v-71h-131v-113q0 -64 -26 -81h219z" glyph-name="sterling" horiz-adv-x="387" unicode="£"/>
<glyph d="M222 176h52q25 0 33 7.5t8 32.5v165q0 26 -8 33.5t-33 7.5h-52q-24 0 -32 -7.5t-8 -33.5v-165q0 -25 8 -32.5t32 -7.5zM397 390v-182q0 -30 -7 -48l42 -42l-58 -58l-48 48q-18 -2 -29 -2h-97q-18 0 -35 3l-49 -49l-58 58l47 47q-5 20 -5 43v182q0 29 7 47l-49 49l58 58 l55 -55q18 2 29 2h97q16 0 23 -1l54 54l58 -58l-44 -44q9 -21 9 -52z" glyph-name="currency" horiz-adv-x="484" unicode="¤"/>
<glyph d="M362 346v-69h-100l-18 -59h118v-66h-124v-152h-91v152h-125v66h119l-19 59h-100v69h79l-88 280h91l88 -331l87 331h91l-86 -280h78z" glyph-name="yen" horiz-adv-x="383" unicode="¥"/>
<glyph d="M52 250h91v-347h-91v347zM143 375h-91v347h91v-347z" glyph-name="brokenbar" horiz-adv-x="197" unicode="¦"/>
<glyph d="M479 388h-76q-18 0 -24 -6t-6 -23v-90q0 -18 6 -23.5t24 -5.5h76q18 0 23.5 5.5t5.5 23.5v90q0 17 -5.5 23t-23.5 6zM597 534h-90v35q0 18 -5.5 24t-23.5 6h-41q-18 0 -24 -6t-6 -24v-81q0 -18 6 -24t24 -6h66q94 0 94 -88v-81q0 -70 -42 -88q10 -20 10 -50v-103 q0 -89 -94 -89h-94q-93 0 -93 89v45h90v-35q0 -18 6 -23.5t24 -5.5h41q18 0 24 5.5t6 23.5v82q0 18 -6 23.5t-24 5.5h-67q-93 0 -93 89v77q0 71 43 90q-11 20 -11 51v104q0 88 93 88h94q93 0 93 -88v-46z" glyph-name="section" horiz-adv-x="809" unicode="§"/>
<glyph d="M65 541v94h102v-94h-102zM255 541v94h101v-94h-101z" glyph-name="dieresis" horiz-adv-x="421" unicode="¨"/>
<glyph d="M670 341v-63q0 -141 -51 -209.5t-166 -68.5h-191q-115 0 -166 68.5t-51 209.5v63q0 142 51.5 213.5t165.5 71.5h191q114 0 165.5 -71.5t51.5 -213.5zM270 68h175q79 0 112 52.5t33 152.5v73q0 214 -145 214h-175q-145 0 -145 -214v-73q0 -100 33 -152.5t112 -52.5z M407 244v26h80v-39q0 -80 -84 -80h-90q-84 0 -84 80v174q0 81 84 81h90q84 0 84 -81v-38h-80v25q0 17 -5.5 22.5t-22.5 5.5h-43q-17 0 -22.5 -5.5t-5.5 -22.5v-148q0 -17 5.5 -22t22.5 -5h43q17 0 22.5 5t5.5 22z" glyph-name="copyright" horiz-adv-x="701" unicode="©"/>
<glyph d="M107 334h37q22 0 22 24v192q0 25 -22 25h-37q-14 0 -18 -3.5t-4 -16.5v-200q0 -13 4.5 -17t17.5 -4zM167 626h60v-344h-61v24q-9 -24 -41 -24h-36q-64 0 -64 63v218q0 63 64 63h35q34 0 43 -27v27z" glyph-name="ordfeminine" horiz-adv-x="257" unicode="ª"/>
<glyph d="M156 104l-119 155l119 155h94l-120 -156l120 -154h-94zM358 104l-118 155l118 155h95l-121 -156l121 -154h-95z" glyph-name="guillemotleft" horiz-adv-x="490" unicode="«"/>
<glyph d="M416 400v-239h-71v148h-311v91h382z" glyph-name="logicalnot" horiz-adv-x="460" unicode="¬"/>
<glyph d="M48 259v70h218v-70h-218z" glyph-name="uni00AD" horiz-adv-x="315" unicode="­"/>
<glyph d="M380 535v-35q0 -78 -28.5 -116t-91.5 -38h-106q-64 0 -92 38t-28 116v35q0 78 28.5 117.5t91.5 39.5h106q120 0 120 -157zM159 385h97q44 0 61.5 28t17.5 84v40q0 118 -79 118h-97q-80 0 -80 -118v-40q0 -56 18 -84t62 -28zM156 625h70q35 0 35 -32v-61q0 -28 -22 -32 l33 -83h-38l-32 81h-10v-81h-36v208zM224 535v54q0 7 -6 7h-26v-67h26q6 0 6 6z" glyph-name="registered" horiz-adv-x="414" unicode="®"/>
<glyph d="M76 551v68h268v-68h-268z" glyph-name="macron" horiz-adv-x="421" unicode="¯"/>
<glyph d="M324 539v-110q0 -86 -91 -86h-88q-91 0 -91 86v110q0 87 91 87h88q91 0 91 -87zM240 437v95q0 17 -6 22.5t-24 5.5h-42q-18 0 -24 -5.5t-6 -22.5v-95q0 -17 6 -22.5t24 -5.5h42q19 0 24.5 5.5t5.5 22.5z" glyph-name="degree" horiz-adv-x="383" unicode="°"/>
<glyph d="M29 171v73h362v-73h-362zM255 426h136v-72h-136v-79h-90v79h-136v72h136v79h90v-79z" glyph-name="plusminus" horiz-adv-x="420" unicode="±"/>
<glyph d="M73 563v-51h-59v66q0 48 51 48h68q51 0 51 -48v-33q0 -49 -22 -83l-78 -129h102v-51h-172v48l93 148q17 25 17 67v18q0 9 -3 12.5t-13 3.5h-18q-10 0 -13.5 -3.5t-3.5 -12.5z" glyph-name="uni00B2" horiz-adv-x="202" unicode="²"/>
<glyph d="M76 563v-44h-61v59q0 48 52 48h71q51 0 51 -48v-88q0 -30 -22 -34q22 -4 22 -32v-94q0 -48 -51 -48h-71q-52 0 -52 48v59h61v-43q0 -10 3 -13t13 -3h21q10 0 13 3t3 13v70q0 10 -3 13t-13 3h-31v47h31q10 0 13 3.5t3 12.5v68q0 9 -3 12.5t-13 3.5h-21q-10 0 -13 -3.5 t-3 -12.5z" glyph-name="uni00B3" horiz-adv-x="214" unicode="³"/>
<glyph d="M118 519l82 132h100l-105 -132h-77z" glyph-name="acute" horiz-adv-x="421" unicode="´"/>
<glyph d="M228 488h90v-488h-90v39q-13 -39 -62 -39h-36v-138h-90v626h90v-386q0 -18 6 -23.5t24 -5.5h35q18 0 25.5 8t7.5 27v380z" glyph-name="mu" horiz-adv-x="371" unicode="µ"/>
<glyph d="M287 626v-764h-82v364h-63q-93 0 -93 88v224q0 88 93 88h145zM363 626h82v-764h-82v764z" glyph-name="paragraph" horiz-adv-x="507" unicode="¶"/>
<glyph d="M34 259v121h101v-121h-101z" glyph-name="periodcentered" horiz-adv-x="217" unicode="·"/>
<glyph d="M206 -84v34h85v-41q0 -96 -101 -96h-57v70h40q33 0 33 33z" glyph-name="cedilla" horiz-adv-x="421" unicode="¸"/>
<glyph d="M111 626v-344h-61v297h-39v47h100z" glyph-name="uni00B9" horiz-adv-x="145" unicode="¹"/>
<glyph d="M162 350v208q0 13 -4.5 17t-17.5 4h-33q-13 0 -17 -4t-4 -17v-208q0 -12 4 -16t17 -4h33q13 0 17.5 4t4.5 16zM91 626h66q65 0 65 -63v-218q0 -63 -65 -63h-66q-65 0 -65 63v218q0 63 65 63z" glyph-name="ordmasculine" horiz-adv-x="248" unicode="º"/>
<glyph d="M250 259l-119 -155h-94l121 154l-121 156h94zM453 259l-119 -155h-94l120 154l-120 156h94z" glyph-name="guillemotright" horiz-adv-x="490" unicode="»"/>
<glyph d="M219 488v-123h-101v123h101zM211 34h91v-85q0 -87 -93 -87h-96q-93 0 -93 87v182q0 87 93 87h13l4 66h76l8 -131h-75q-17 0 -22.5 -6.5t-5.5 -23.5v-161q0 -17 5.5 -23.5t22.5 -6.5h44q17 0 22.5 6.5t5.5 23.5v72z" glyph-name="questiondown" horiz-adv-x="342" unicode="¿"/>
<glyph d="M220 657h-77l-105 132h100zM136 218h109l-57 330zM282 0l-25 145h-132l-23 -145h-90l111 626h131l119 -626h-91z" glyph-name="Agrave" horiz-adv-x="385" unicode="À"/>
<glyph d="M333 789l-105 -132h-77l82 132h100zM136 218h109l-57 330zM282 0l-25 145h-132l-23 -145h-90l111 626h131l119 -626h-91z" glyph-name="Aacute" horiz-adv-x="385" unicode="Á"/>
<glyph d="M188 738l-52 -81h-94l96 132h101l95 -132h-93zM136 218h109l-57 330zM282 0l-25 145h-132l-23 -145h-90l111 626h131l119 -626h-91z" glyph-name="Acircumflex" horiz-adv-x="385" unicode="Â"/>
<glyph d="M123 673v-15h-78v22q0 40 18 60t60 20h9q25 0 56.5 -19t41.5 -19t14 4.5t4 19.5v14h77v-23q0 -39 -17 -59t-60 -20h-7q-26 0 -59 19t-42 19q-17 0 -17 -23zM136 218h109l-57 330zM282 0l-25 145h-132l-23 -145h-90l111 626h131l119 -626h-91z" glyph-name="Atilde" horiz-adv-x="385" unicode="Ã"/>
<glyph d="M334 751v-94h-101v94h101zM145 751v-94h-102v94h102zM136 218h109l-57 330zM282 0l-25 145h-132l-23 -145h-90l111 626h131l119 -626h-91z" glyph-name="Adieresis" horiz-adv-x="385" unicode="Ä"/>
<glyph d="M146 740v-7q0 -15 4.5 -20t21.5 -5h33q17 0 21.5 5t4.5 20v7q0 15 -4.5 20t-21.5 5h-33q-17 0 -21.5 -5t-4.5 -20zM221 658h-65q-73 0 -73 70v17q0 70 73 70h65q73 0 73 -70v-17q0 -70 -73 -70zM136 218h109l-57 330zM282 0l-25 145h-132l-23 -145h-90l111 626h131 l119 -626h-91z" glyph-name="Aring" horiz-adv-x="385" unicode="Å"/>
<glyph d="M286 221v293l-105 -293h105zM375 73h181v-73h-270v149h-131l-53 -149h-91l232 626h306v-73h-174v-193h144v-73h-144v-214z" glyph-name="AE" horiz-adv-x="579" unicode="Æ"/>
<glyph d="M153 -84v34h85v-41q0 -96 -101 -96h-57v70h40q33 0 33 33zM340 430h-92v96q0 18 -5.5 23.5t-23.5 5.5h-51q-18 0 -24 -5.5t-6 -23.5v-427q0 -18 6 -23.5t24 -5.5h51q18 0 23.5 5.5t5.5 23.5v95h92v-106q0 -89 -94 -89h-106q-93 0 -93 89v450q0 88 93 88h106q94 0 94 -88 v-108z" glyph-name="Ccedilla" horiz-adv-x="377" unicode="Ç"/>
<glyph d="M223 657h-77l-105 132h100zM143 73h181v-73h-272v626h265v-73h-174v-193h144v-73h-144v-214z" glyph-name="Egrave" horiz-adv-x="343" unicode="È"/>
<glyph d="M325 789l-105 -132h-77l82 132h100zM143 287v-214h181v-73h-272v626h265v-73h-174v-193h144v-73h-144z" glyph-name="Eacute" horiz-adv-x="343" unicode="É"/>
<glyph d="M186 738l-52 -81h-94l96 132h101l95 -132h-93zM143 287v-214h181v-73h-272v626h265v-73h-174v-193h144v-73h-144z" glyph-name="Ecircumflex" horiz-adv-x="343" unicode="Ê"/>
<glyph d="M139 751v-94h-102v94h102zM143 287v-214h181v-73h-272v626h265v-73h-174v-193h144v-73h-144zM227 751h101v-94h-101v94z" glyph-name="Edieresis" horiz-adv-x="354" unicode="Ë"/>
<glyph d="M60 626h90v-626h-90v626zM61 789l82 -132h-77l-105 132h100z" glyph-name="Igrave" horiz-adv-x="210" unicode="Ì"/>
<glyph d="M60 626h90v-626h-90v626zM69 657l82 132h100l-105 -132h-77z" glyph-name="Iacute" horiz-adv-x="210" unicode="Í"/>
<glyph d="M60 626h90v-626h-90v626zM-40 657l96 132h101l95 -132h-93l-53 81l-52 -81h-94z" glyph-name="Icircumflex" horiz-adv-x="210" unicode="Î"/>
<glyph d="M-42 657v94h102v-94h-102zM148 657v94h101v-94h-101zM60 626h90v-626h-90v626z" glyph-name="Idieresis" horiz-adv-x="210" unicode="Ï"/>
<glyph d="M274 100v426q0 18 -6 23.5t-24 5.5h-99v-204h75v-71h-75v-209h99q18 0 24 5.5t6 23.5zM54 626h218q93 0 93 -88v-450q0 -88 -93 -88h-218v280h-51v71h51v275z" glyph-name="Eth" horiz-adv-x="412" unicode="Ð"/>
<glyph d="M275 626h83v-626h-91l-132 452v-452h-83v626h95l128 -439v439zM261 658q-26 0 -59 19t-42 19q-17 0 -17 -23v-15h-78v22q0 40 18 60t60 20h9q25 0 56.5 -19t41.5 -19t14 4.5t4 19.5v14h77v-23q0 -39 -17 -59t-60 -20h-7z" glyph-name="Ntilde" horiz-adv-x="410" unicode="Ñ"/>
<glyph d="M225 657h-77l-105 132h100zM255 102v422q0 18 -6 23.5t-24 5.5h-58q-18 0 -23.5 -5.5t-5.5 -23.5v-422q0 -18 5.5 -23.5t23.5 -5.5h58q18 0 24 5.5t6 23.5zM141 626h111q93 0 93 -88v-450q0 -88 -93 -88h-111q-94 0 -94 88v450q0 88 94 88z" glyph-name="Ograve" horiz-adv-x="393" unicode="Ò"/>
<glyph d="M334 789l-105 -132h-77l82 132h100zM255 102v422q0 18 -6 23.5t-24 5.5h-58q-18 0 -23.5 -5.5t-5.5 -23.5v-422q0 -18 5.5 -23.5t23.5 -5.5h58q18 0 24 5.5t6 23.5zM141 626h111q93 0 93 -88v-450q0 -88 -93 -88h-111q-94 0 -94 88v450q0 88 94 88z" glyph-name="Oacute" horiz-adv-x="393" unicode="Ó"/>
<glyph d="M195 738l-52 -81h-94l96 132h101l95 -132h-93zM255 102v422q0 18 -6 23.5t-24 5.5h-58q-18 0 -23.5 -5.5t-5.5 -23.5v-422q0 -18 5.5 -23.5t23.5 -5.5h58q18 0 24 5.5t6 23.5zM141 626h111q93 0 93 -88v-450q0 -88 -93 -88h-111q-94 0 -94 88v450q0 88 94 88z" glyph-name="Ocircumflex" horiz-adv-x="393" unicode="Ô"/>
<glyph d="M133 673v-15h-78v22q0 40 18 60t60 20h9q25 0 56.5 -19t41.5 -19t14 4.5t4 19.5v14h77v-23q0 -39 -17 -59t-60 -20h-7q-26 0 -59 19t-42 19q-17 0 -17 -23zM255 102v422q0 18 -6 23.5t-24 5.5h-58q-18 0 -23.5 -5.5t-5.5 -23.5v-422q0 -18 5.5 -23.5t23.5 -5.5h58 q18 0 24 5.5t6 23.5zM141 626h111q93 0 93 -88v-450q0 -88 -93 -88h-111q-94 0 -94 88v450q0 88 94 88z" glyph-name="Otilde" horiz-adv-x="393" unicode="Õ"/>
<glyph d="M342 751v-94h-101v94h101zM153 751v-94h-102v94h102zM255 102v422q0 18 -6 23.5t-24 5.5h-58q-18 0 -23.5 -5.5t-5.5 -23.5v-422q0 -18 5.5 -23.5t23.5 -5.5h58q18 0 24 5.5t6 23.5zM141 626h111q93 0 93 -88v-450q0 -88 -93 -88h-111q-94 0 -94 88v450q0 88 94 88z" glyph-name="Odieresis" horiz-adv-x="389" unicode="Ö"/>
<glyph d="M354 420l-109 -109l109 -109l-56 -56l-109 109l-109 -109l-56 56l109 109l-109 109l56 56l109 -109l109 109z" glyph-name="multiply" horiz-adv-x="378" unicode="×"/>
<glyph d="M262 98v307l-121 -324q4 -13 28 -13h62q19 0 25 6t6 24zM139 529v-311l122 325q-4 15 -30 15h-62q-19 0 -24.5 -6t-5.5 -23zM349 538v-450q0 -88 -93 -88h-111q-18 0 -33 3l-9 -23h-53l18 49q-17 22 -17 59v450q0 88 94 88h111q21 0 34 -4l9 24h53l-19 -50q16 -20 16 -58 z" glyph-name="Oslash" horiz-adv-x="401" unicode="Ø"/>
<glyph d="M237 657h-77l-105 132h100zM257 626h91v-538q0 -88 -94 -88h-111q-94 0 -94 88v538h91v-524q0 -18 6 -23.5t24 -5.5h57q19 0 24.5 5.5t5.5 23.5v524z" glyph-name="Ugrave" horiz-adv-x="397" unicode="Ù"/>
<glyph d="M340 789l-105 -132h-77l82 132h100zM257 626h91v-538q0 -88 -94 -88h-111q-94 0 -94 88v538h91v-524q0 -18 6 -23.5t24 -5.5h57q19 0 24.5 5.5t5.5 23.5v524z" glyph-name="Uacute" horiz-adv-x="397" unicode="Ú"/>
<glyph d="M198 738l-52 -81h-94l96 132h101l95 -132h-93zM257 626h91v-538q0 -88 -94 -88h-111q-94 0 -94 88v538h91v-524q0 -18 6 -23.5t24 -5.5h57q19 0 24.5 5.5t5.5 23.5v524z" glyph-name="Ucircumflex" horiz-adv-x="397" unicode="Û"/>
<glyph d="M344 751v-94h-101v94h101zM155 751v-94h-102v94h102zM257 626h91v-538q0 -88 -94 -88h-111q-94 0 -94 88v538h91v-524q0 -18 6 -23.5t24 -5.5h57q19 0 24.5 5.5t5.5 23.5v524z" glyph-name="Udieresis" horiz-adv-x="397" unicode="Ü"/>
<glyph d="M325 789l-105 -132h-77l82 132h100zM229 0h-91v198l-134 428h92l87 -345l82 345h92l-128 -428v-198z" glyph-name="Yacute" horiz-adv-x="361" unicode="Ý"/>
<glyph d="M259 224v178q0 18 -6 23.5t-24 5.5h-86v-236h86q18 0 24 5.5t6 23.5zM143 503h113q93 0 93 -88v-204q0 -88 -93 -88h-113v-123h-90v626h90v-123z" glyph-name="Thorn" horiz-adv-x="385" unicode="Þ"/>
<glyph d="M200 151h89v-52q0 -17 5.5 -23t23.5 -6h11q18 0 23.5 5.5t5.5 23.5v81q0 18 -5.5 23.5t-23.5 5.5h-38q-91 0 -91 89v56q0 86 88 86q23 0 29.5 4t6.5 20v31q0 18 -5.5 24t-23.5 6h-129q-18 0 -24.5 -6t-6.5 -24v-495h-90v512q0 88 91 88h188q91 0 91 -87v-67 q0 -73 -80 -73h-18q-18 0 -24 -5.5t-6 -23.5v-37q0 -18 6 -23.5t24 -5.5h37q93 0 93 -88v-102q0 -88 -91 -88h-64q-92 0 -92 88v63z" glyph-name="germandbls" horiz-adv-x="477" unicode="ß"/>
<glyph d="M245 519h-77l-105 132h100zM158 73h35q18 0 25.5 8t7.5 27v272q0 19 -7.5 27t-25.5 8h-35q-18 0 -24 -5.5t-6 -23.5v-284q0 -18 6 -23.5t24 -5.5zM226 488h90v-488h-90v39q-13 -39 -62 -39h-36q-90 0 -90 88v311q0 89 90 89h36q49 0 62 -39v39z" glyph-name="agrave" unicode="à"/>
<glyph d="M328 651l-105 -132h-77l82 132h100zM158 73h35q18 0 25.5 8t7.5 27v272q0 19 -7.5 27t-25.5 8h-35q-18 0 -24 -5.5t-6 -23.5v-284q0 -18 6 -23.5t24 -5.5zM226 488h90v-488h-90v39q-13 -39 -62 -39h-36q-90 0 -90 88v311q0 89 90 89h36q49 0 62 -39v39z" glyph-name="aacute" unicode="á"/>
<glyph d="M182 600l-52 -81h-94l96 132h101l95 -132h-93zM158 73h35q18 0 25.5 8t7.5 27v272q0 19 -7.5 27t-25.5 8h-35q-18 0 -24 -5.5t-6 -23.5v-284q0 -18 6 -23.5t24 -5.5zM226 488h90v-488h-90v39q-13 -39 -62 -39h-36q-90 0 -90 88v311q0 89 90 89h36q49 0 62 -39v39z" glyph-name="acircumflex" unicode="â"/>
<glyph d="M113 549v-15h-78v22q0 40 18 60t60 20h9q25 0 56.5 -19t41.5 -19t14 4.5t4 19.5v14h77v-23q0 -39 -17 -59t-60 -20h-7q-26 0 -59 19t-42 19q-17 0 -17 -23zM158 73h35q18 0 25.5 8t7.5 27v272q0 19 -7.5 27t-25.5 8h-35q-18 0 -24 -5.5t-6 -23.5v-284q0 -18 6 -23.5 t24 -5.5zM226 488h90v-488h-90v39q-13 -39 -62 -39h-36q-90 0 -90 88v311q0 89 90 89h36q49 0 62 -39v39z" glyph-name="atilde" unicode="ã"/>
<glyph d="M135 635v-94h-102v94h102zM158 73h35q18 0 25.5 8t7.5 27v272q0 19 -7.5 27t-25.5 8h-35q-18 0 -24 -5.5t-6 -23.5v-284q0 -18 6 -23.5t24 -5.5zM226 488h90v-488h-90v39q-13 -39 -62 -39h-36q-90 0 -90 88v311q0 89 90 89h36q49 0 62 -39v39zM223 635h101v-94h-101v94z " glyph-name="adieresis" unicode="ä"/>
<glyph d="M141 610v-7q0 -15 4.5 -20t21.5 -5h33q17 0 21.5 5t4.5 20v7q0 15 -4.5 20t-21.5 5h-33q-17 0 -21.5 -5t-4.5 -20zM216 528h-65q-73 0 -73 70v17q0 70 73 70h65q73 0 73 -70v-17q0 -70 -73 -70zM158 73h35q18 0 25.5 8t7.5 27v272q0 19 -7.5 27t-25.5 8h-35 q-18 0 -24 -5.5t-6 -23.5v-284q0 -18 6 -23.5t24 -5.5zM226 488h90v-488h-90v39q-13 -39 -62 -39h-36q-90 0 -90 88v311q0 89 90 89h36q49 0 62 -39v39z" glyph-name="aring" unicode="å"/>
<glyph d="M163 73h35q16 0 24 6.5t9 23.5v104l-98 -39v-66q0 -18 6 -23.5t24 -5.5zM397 416h-48q-18 0 -23.5 -5.5t-5.5 -23.5v-104h106v104q0 18 -5.5 23.5t-23.5 5.5zM505 215h-185v-114q0 -18 5.5 -23.5t23.5 -5.5h45q18 0 24 5.5t6 23.5v40h89v-53q0 -88 -93 -88h-77 q-26 0 -45 12t-26 30q-6 -18 -24.5 -30t-44.5 -12h-70q-90 0 -90 88v114l188 77v106q-3 30 -33 30h-35q-18 0 -24 -5.5t-6 -23.5v-75h-90v88q0 89 90 89h71q25 0 44 -12.5t25 -29.5q6 18 25 30t46 12h78q93 0 93 -89v-179h-10v-5z" glyph-name="ae" horiz-adv-x="557" unicode="æ"/>
<glyph d="M140 -84v34h85v-41q0 -96 -101 -96h-57v70h40q33 0 33 33zM320 334h-89v52q0 18 -6 23.5t-24 5.5h-43q-18 0 -24 -5.5t-6 -23.5v-284q0 -18 6 -23.5t24 -5.5h43q18 0 24 5.5t6 23.5v52h89v-66q0 -88 -94 -88h-95q-93 0 -93 88v311q0 89 93 89h95q94 0 94 -89v-65z" glyph-name="ccedilla" horiz-adv-x="351" unicode="ç"/>
<glyph d="M217 519h-77l-105 132h100zM130 282h108v106q0 17 -5.5 23t-23.5 6h-49q-18 0 -24 -6t-6 -23v-106zM135 488h98q94 0 94 -89v-183h-197v-116q0 -17 6 -23t24 -6h46q18 0 24 6t6 24v40h88v-53q0 -88 -93 -88h-96q-93 0 -93 88v311q0 89 93 89z" glyph-name="egrave" unicode="è"/>
<glyph d="M327 651l-105 -132h-77l82 132h100zM130 282h108v106q0 17 -5.5 23t-23.5 6h-49q-18 0 -24 -6t-6 -23v-106zM135 488h98q94 0 94 -89v-183h-197v-116q0 -17 6 -23t24 -6h46q18 0 24 6t6 24v40h88v-53q0 -88 -93 -88h-96q-93 0 -93 88v311q0 89 93 89z" glyph-name="eacute" unicode="é"/>
<glyph d="M186 600l-52 -81h-94l96 132h101l95 -132h-93zM130 282h108v106q0 17 -5.5 23t-23.5 6h-49q-18 0 -24 -6t-6 -23v-106zM135 488h98q94 0 94 -89v-183h-197v-116q0 -17 6 -23t24 -6h46q18 0 24 6t6 24v40h88v-53q0 -88 -93 -88h-96q-93 0 -93 88v311q0 89 93 89z" glyph-name="ecircumflex" horiz-adv-x="358" unicode="ê"/>
<glyph d="M325 635v-94h-101v94h101zM136 635v-94h-102v94h102zM130 282h108v106q0 17 -5.5 23t-23.5 6h-49q-18 0 -24 -6t-6 -23v-106zM135 488h98q94 0 94 -89v-183h-197v-116q0 -17 6 -23t24 -6h46q18 0 24 6t6 24v40h88v-53q0 -88 -93 -88h-96q-93 0 -93 88v311q0 89 93 89z " glyph-name="edieresis" horiz-adv-x="358" unicode="ë"/>
<glyph d="M134 0h-90v488h90v-488zM46 651l82 -132h-77l-105 132h100z" glyph-name="igrave" horiz-adv-x="178" unicode="ì"/>
<glyph d="M134 0h-90v488h90v-488zM47 519l82 132h100l-105 -132h-77z" glyph-name="iacute" horiz-adv-x="178" unicode="í"/>
<glyph d="M134 0h-90v488h90v-488zM-57 519l96 132h101l95 -132h-93l-53 81l-52 -81h-94z" glyph-name="icircumflex" horiz-adv-x="178" unicode="î"/>
<glyph d="M134 0h-90v488h90v-488zM-57 541v94h102v-94h-102zM133 541v94h101v-94h-101z" glyph-name="idieresis" horiz-adv-x="178" unicode="ï"/>
<glyph d="M241 102v198q0 22 -3 45h-80q-18 0 -24 -5.5t-6 -23.5v-214q0 -18 6 -23.5t24 -5.5h53q18 0 24 5.5t6 23.5zM331 309v-221q0 -88 -94 -88h-106q-93 0 -93 88v239q0 89 93 89h91q-17 50 -48 98l-95 -34v55l62 22q-33 39 -71 69h125q23 -23 34 -37l89 32v-55l-57 -21 q70 -108 70 -236z" glyph-name="eth" horiz-adv-x="378" unicode="ð"/>
<glyph d="M112 549v-15h-78v22q0 40 18 60t60 20h9q25 0 56.5 -19t41.5 -19t14 4.5t4 19.5v14h77v-23q0 -39 -17 -59t-60 -20h-7q-26 0 -59 19t-42 19q-17 0 -17 -23zM196 488h35q91 0 91 -89v-399h-90v386q0 18 -6 23.5t-24 5.5h-35q-18 0 -25.5 -8t-7.5 -27v-380h-90v488h90v-39 q13 39 62 39z" glyph-name="ntilde" horiz-adv-x="365" unicode="ñ"/>
<glyph d="M220 519h-77l-105 132h100zM242 101v286q0 18 -6 24t-24 6h-55q-18 0 -23.5 -6t-5.5 -24v-286q0 -18 5.5 -24t23.5 -6h55q18 0 24 6t6 24zM131 488h107q93 0 93 -89v-311q0 -88 -93 -88h-107q-92 0 -92 88v311q0 89 92 89z" glyph-name="ograve" horiz-adv-x="370" unicode="ò"/>
<glyph d="M326 651l-105 -132h-77l82 132h100zM242 101v286q0 18 -6 24t-24 6h-55q-18 0 -23.5 -6t-5.5 -24v-286q0 -18 5.5 -24t23.5 -6h55q18 0 24 6t6 24zM131 488h107q93 0 93 -89v-311q0 -88 -93 -88h-107q-92 0 -92 88v311q0 89 92 89z" glyph-name="oacute" horiz-adv-x="370" unicode="ó"/>
<glyph d="M183 600l-52 -81h-94l96 132h101l95 -132h-93zM242 101v286q0 18 -6 24t-24 6h-55q-18 0 -23.5 -6t-5.5 -24v-286q0 -18 5.5 -24t23.5 -6h55q18 0 24 6t6 24zM131 488h107q93 0 93 -89v-311q0 -88 -93 -88h-107q-92 0 -92 88v311q0 89 92 89z" glyph-name="ocircumflex" horiz-adv-x="370" unicode="ô"/>
<glyph d="M116 549v-15h-78v22q0 40 18 60t60 20h9q25 0 56.5 -19t41.5 -19t14 4.5t4 19.5v14h77v-23q0 -39 -17 -59t-60 -20h-7q-26 0 -59 19t-42 19q-17 0 -17 -23zM242 101v286q0 18 -6 24t-24 6h-55q-18 0 -23.5 -6t-5.5 -24v-286q0 -18 5.5 -24t23.5 -6h55q18 0 24 6t6 24z M131 488h107q93 0 93 -89v-311q0 -88 -93 -88h-107q-92 0 -92 88v311q0 89 92 89z" glyph-name="otilde" horiz-adv-x="370" unicode="õ"/>
<glyph d="M330 635v-94h-101v94h101zM141 635v-94h-102v94h102zM242 101v286q0 18 -6 24t-24 6h-55q-18 0 -23.5 -6t-5.5 -24v-286q0 -18 5.5 -24t23.5 -6h55q18 0 24 6t6 24zM131 488h107q93 0 93 -89v-311q0 -88 -93 -88h-107q-92 0 -92 88v311q0 89 92 89z" glyph-name="odieresis" horiz-adv-x="370" unicode="ö"/>
<glyph d="M25 276v74h362v-74h-362zM161 501h90v-88h-90v88zM161 212h90v-87h-90v87z" glyph-name="divide" horiz-adv-x="412" unicode="÷"/>
<glyph d="M248 96v219l-112 -244q6 -5 24 -5h58q19 0 24.5 5.5t5.5 24.5zM129 392v-220l112 245q-5 5 -23 5h-58q-19 0 -25 -5.5t-6 -24.5zM335 399v-311q0 -88 -93 -88h-107q-17 0 -30 3l-11 -23h-53l21 46q-19 22 -19 62v311q0 89 92 89h107q16 0 31 -3l10 23h54l-21 -46 q19 -22 19 -63z" glyph-name="oslash" horiz-adv-x="378" unicode="ø"/>
<glyph d="M223 519h-77l-105 132h100zM231 488h90v-488h-90v39q-13 -39 -62 -39h-36q-90 0 -90 88v400h90v-386q0 -18 6 -23.5t24 -5.5h35q18 0 25.5 8t7.5 27v380z" glyph-name="ugrave" horiz-adv-x="365" unicode="ù"/>
<glyph d="M325 651l-105 -132h-77l82 132h100zM231 488h90v-488h-90v39q-13 -39 -62 -39h-36q-90 0 -90 88v400h90v-386q0 -18 6 -23.5t24 -5.5h35q18 0 25.5 8t7.5 27v380z" glyph-name="uacute" horiz-adv-x="365" unicode="ú"/>
<glyph d="M178 600l-52 -81h-94l96 132h101l95 -132h-93zM231 488h90v-488h-90v39q-13 -39 -62 -39h-36q-90 0 -90 88v400h90v-386q0 -18 6 -23.5t24 -5.5h35q18 0 25.5 8t7.5 27v380z" glyph-name="ucircumflex" horiz-adv-x="361" unicode="û"/>
<glyph d="M134 635v-94h-102v94h102zM231 488h90v-488h-90v39q-13 -39 -62 -39h-36q-90 0 -90 88v400h90v-386q0 -18 6 -23.5t24 -5.5h35q18 0 25.5 8t7.5 27v380zM222 635h101v-94h-101v94z" glyph-name="udieresis" horiz-adv-x="364" unicode="ü"/>
<glyph d="M116 -138h-60v72h41q43 0 52 33l10 41h-49l-102 480h92l74 -409l69 409h91l-103 -535q-22 -91 -115 -91zM136 519l82 132h100l-105 -132h-77z" glyph-name="yacute" horiz-adv-x="342" unicode="ý"/>
<glyph d="M230 102v284q0 18 -5.5 23.5t-23.5 5.5h-36q-32 0 -32 -35v-272q0 -35 32 -35h36q18 0 23.5 5.5t5.5 23.5zM195 488h35q91 0 91 -89v-311q0 -88 -91 -88h-35q-49 0 -62 36v-174h-90v807h89v-220q13 39 63 39z" glyph-name="thorn" horiz-adv-x="362" unicode="þ"/>
<glyph d="M139 751v-94h-102v94h102zM143 287v-214h181v-73h-272v626h265v-73h-174v-193h144v-73h-144zM227 751h101v-94h-101v94z" glyph-name="uni0401" horiz-adv-x="354" unicode="Ё"/>
<glyph d="M248 431v96q0 18 -5 23q-6 6 -24 6h-51q-18 0 -24 -6q-6 -5 -6 -23v-179h110v-71h-110v-177q0 -18 6 -24q6 -5 24 -5h51q18 0 24 5q5 6 5 24v95h92v-106q0 -89 -94 -89h-106q-93 0 -93 89v450q0 88 93 88h106q94 0 94 -88v-108h-92z" glyph-name="uni0404" horiz-adv-x="377" unicode="Є"/>
<glyph d="M60 626h90v-626h-90v626z" glyph-name="uni0406" horiz-adv-x="210" unicode="І"/>
<glyph d="M-42 657v94h102v-94h-102zM148 657v94h101v-94h-101zM60 626h90v-626h-90v626z" glyph-name="uni0407" horiz-adv-x="210" unicode="Ї"/>
<glyph d="M136 218h109l-57 330zM282 0l-25 145h-132l-23 -145h-90l111 626h131l119 -626h-91z" glyph-name="uni0410" horiz-adv-x="385" unicode="А"/>
<glyph d="M242 283q18 0 24 -6q3 -2 5 -9q1 -5 1 -14v-154q0 -18 -6 -23q-6 -6 -24 -6h-100v212h100zM363 555v71h-86h-8h-217v-626h217q94 0 94 88v171l-1 11q0 36 -18 57q-21 25 -67 27h-135v201h221z" glyph-name="uni0411" horiz-adv-x="409" unicode="Б"/>
<glyph d="M52 626h217q94 0 94 -88v-159q0 -53 -40 -62q40 -10 40 -58v-171q0 -88 -94 -88h-217v626zM272 100v154q0 18 -6 23.5t-24 5.5h-100v-212h100q18 0 24 5.5t6 23.5zM272 383v143q0 18 -6 23.5t-24 5.5h-100v-201h100q18 0 24 5.5t6 23.5z" glyph-name="uni0412" horiz-adv-x="409" unicode="В"/>
<glyph d="M142 0h-90v626h245v-73h-155v-553z" glyph-name="uni0413" horiz-adv-x="301" unicode="Г"/>
<glyph d="M158 624v0l-100 -556h-49v-153h92v83h216v-83h92v153h-46v556h-205zM222 553h49v-485h-123z" glyph-name="uni0414" horiz-adv-x="418" unicode="Д"/>
<glyph d="M143 73h181v-73h-272v626h265v-73h-174v-193h144v-73h-144v-214z" glyph-name="uni0415" horiz-adv-x="343" unicode="Е"/>
<glyph d="M468 626l-129 -314l127 -312h98l-131 312l132 314h-97zM242 0h90v626h-90v-626zM10 626l132 -314l-131 -312h98l127 312l-129 314h-97z" glyph-name="uni0416" horiz-adv-x="575" unicode="Ж"/>
<glyph d="M119 524v-94h-90v108q0 88 93 88h92q94 0 94 -88v-158q0 -53 -40 -62q40 -9 40 -58v-172q0 -88 -94 -88h-92q-93 0 -93 88v107h90v-93q0 -18 6 -23.5t24 -5.5h39q18 0 24 5.5t6 23.5v150q0 18 -6 23.5t-24 5.5h-75v72h75q18 0 24 5.5t6 23.5v142q0 18 -6 23.5t-24 5.5 h-39q-18 0 -24 -5.5t-6 -23.5z" glyph-name="uni0417" horiz-adv-x="355" unicode="З"/>
<glyph d="M275 439l-128 -439h-95v626h83v-452l132 452h91v-626h-83v439z" glyph-name="uni0418" horiz-adv-x="410" unicode="И"/>
<glyph d="M275 439l-128 -439h-95v626h83v-452l132 452h91v-626h-83v439zM75 726v-68h268v68h-268z" glyph-name="uni0419" horiz-adv-x="410" unicode="Й"/>
<glyph d="M52 0v626h90v-626h-90zM374 626l-132 -314l131 -312h-98l-127 312l129 314h97z" glyph-name="uni041A" horiz-adv-x="384" unicode="К"/>
<glyph d="M383 590h1v-590h-91v555h-135v-467q0 -88 -94 -88h-56v77h30q18 0 23.5 5.5t5.5 23.5v520h316v-36z" glyph-name="uni041B" horiz-adv-x="436" unicode="Л"/>
<glyph d="M131 0h-79v626h99l107 -388l107 388h99v-626h-79v458l-86 -322h-82l-86 321v-457z" glyph-name="uni041C" horiz-adv-x="516" unicode="М"/>
<glyph d="M275 626h90v-626h-90v275h-133v-275h-90v626h90v-278h133v278z" glyph-name="uni041D" horiz-adv-x="417" unicode="Н"/>
<glyph d="M255 102v422q0 18 -6 23.5t-24 5.5h-58q-18 0 -23.5 -5.5t-5.5 -23.5v-422q0 -18 5.5 -23.5t23.5 -5.5h58q18 0 24 5.5t6 23.5zM141 626h111q93 0 93 -88v-450q0 -88 -93 -88h-111q-94 0 -94 88v450q0 88 94 88z" glyph-name="uni041E" horiz-adv-x="393" unicode="О"/>
<glyph d="M52 626v-626h90l1 555h135v-555h92v626h-318z" glyph-name="uni041F" horiz-adv-x="422" unicode="П"/>
<glyph d="M260 344v180q0 18 -6 23.5t-24 5.5h-88v-239h88q18 0 24 6t6 24zM52 626h205q93 0 93 -88v-208q0 -88 -93 -88h-115v-242h-90v626z" glyph-name="uni0420" horiz-adv-x="378" unicode="Р"/>
<glyph d="M340 430h-92v96q0 18 -5.5 23.5t-23.5 5.5h-51q-18 0 -24 -5.5t-6 -23.5v-427q0 -18 6 -23.5t24 -5.5h51q18 0 23.5 5.5t5.5 23.5v95h92v-106q0 -89 -94 -89h-106q-93 0 -93 89v450q0 88 93 88h106q94 0 94 -88v-108z" glyph-name="uni0421" horiz-adv-x="377" unicode="С"/>
<glyph d="M305 626v-73h-105v-553h-90v553h-105v73h300z" glyph-name="uni0422" horiz-adv-x="310" unicode="Т"/>
<glyph d="M265 626l-82 -345l-87 345h-92l134 -428l-53 -198h87l185 626h-92z" glyph-name="uni0423" horiz-adv-x="361" unicode="У"/>
<glyph d="M408 130q0 -7 -2 -12l-1 -2v-1l-2 -1l-2 -1q-5 -1 -13 -1h-69v402h69q8 0 13 -1l2 -1l2 -1v-1l1 -2q2 -5 2 -12v-366zM227 112h-69q-8 0 -13 1l-2 1l-1 1l-1 1l-1 2q-1 5 -1 12v366q0 7 1 12l1 2l1 1l1 1l2 1q5 1 13 1h69v-402zM412 591h-93v35h-92v-35h-92 q-43 0 -66 -21q-22 -21 -22 -62v-390q0 -41 22 -62q23 -21 66 -21h92v-35h92v35h93q43 0 65 21t22 62v390q0 41 -22 62t-65 21z" glyph-name="uni0424" horiz-adv-x="547" unicode="Ф"/>
<glyph d="M235 320l134 -320h-100l-84 238l-84 -238h-97l132 320l-123 306h100l72 -225l73 225h98z" glyph-name="uni0425" horiz-adv-x="373" unicode="Х"/>
<glyph d="M279 626v-555h-135l-1 555h-90v-626h269v-83h92v153h-43v556h-92z" glyph-name="uni0426" horiz-adv-x="423" unicode="Ц"/>
<glyph d="M341 626v-626h-90v275h-74h-64q-77 3 -85 71v280h90v-249q0 -18 6 -24q3 -4 14 -5h113v278h90z" glyph-name="uni0427" horiz-adv-x="393" unicode="Ч"/>
<glyph d="M505 626v-555h-135l-1 555h-90v-555h-135l-1 555h-90v-626h544v626h-92z" glyph-name="uni0428" horiz-adv-x="650" unicode="Ш"/>
<glyph d="M505 626v-555h-135l-1 555h-90v-555h-135l-1 555h-90v-626h495v-83h92v153h-43v556h-92z" glyph-name="uni0429" horiz-adv-x="649" unicode="Щ"/>
<glyph d="M260 102q0 -18 -6 -23q-6 -6 -24 -6h-88v239h88q18 0 24 -6t6 -24v-180zM142 384v242h-150v-71h60v-555h205q93 0 93 88v208q0 88 -93 88h-115z" glyph-name="uni042A" horiz-adv-x="378" unicode="Ъ"/>
<glyph d="M260 102q0 -18 -6 -23q-6 -6 -24 -6h-88v239h88q18 0 24 -6t6 -24v-180zM142 384v242h-90v-626h205q93 0 93 88v208q0 88 -93 88h-115zM530 0h-90v626h90v-626z" glyph-name="uni042B" horiz-adv-x="582" unicode="Ы"/>
<glyph d="M254 306q-6 6 -24 6h-88v-239h88q18 0 24 5.5t6 23.5v180q0 18 -6 24zM52 626h90v-242h115q93 0 93 -88v-208q0 -88 -93 -88h-205v626z" glyph-name="uni042C" horiz-adv-x="378" unicode="Ь"/>
<glyph d="M27 431v108q0 88 94 88h106q93 0 93 -88v-450q0 -89 -93 -89h-106q-94 0 -94 89v106h92v-95q0 -18 5 -24q6 -5 24 -5h51q18 0 24 5q6 6 6 24v177h-110v71h110v179q0 18 -6 23q-6 6 -24 6h-51q-18 0 -24 -6q-5 -5 -5 -23v-96h-92z" glyph-name="uni042D" horiz-adv-x="367" unicode="Э"/>
<glyph d="M442 102q0 -18 -6 -23q-6 -6 -24 -6h-58q-18 0 -24 6q-5 5 -5 23v422q0 18 5 23q6 6 24 6h58q18 0 24 -6q6 -5 6 -23v-422zM328 626q-94 0 -94 -88v-188h-92v276h-90v-626h90v277h92v-189q0 -88 94 -88h111q93 0 93 88v450q0 88 -93 88h-111z" glyph-name="uni042E" horiz-adv-x="580" unicode="Ю"/>
<glyph d="M163 553q-18 0 -24 -5.5t-6 -23.5v-170q0 -18 6 -23.5t24 -5.5h88v228h-88zM202 253l-94 -253h-97l99 255q-67 11 -67 87v196q0 88 93 88h205v-626h-90v253h-49z" glyph-name="uni042F" horiz-adv-x="393" unicode="Я"/>
<glyph d="M158 73h35q18 0 25.5 8t7.5 27v272q0 19 -7.5 27t-25.5 8h-35q-18 0 -24 -5.5t-6 -23.5v-284q0 -18 6 -23.5t24 -5.5zM226 488h90v-488h-90v39q-13 -39 -62 -39h-36q-90 0 -90 88v311q0 89 90 89h36q49 0 62 -39v39z" glyph-name="uni0430" unicode="а"/>
<glyph d="M232 103q0 -18 -6 -24q-6 -5 -24 -5h-35q-18 0 -25 8q-8 8 -8 27v266q0 19 8 27q7 8 25 8h35q18 0 24 -6t6 -23v-278zM264 479l-1 1l-11 1v0q-9 2 -20 2h-36q-7 0 -13 -1q-38 -5 -49 -38v83q0 17 6 23t24 6h141v71h-167q-94 0 -94 -88v-460v-7q3 -28 22 -48t47 -23l10 -1 h121q25 0 46 15q12 9 20 21q13 20 13 43v324q0 17 -7 33q-16 34 -52 43z" glyph-name="uni0431" horiz-adv-x="361" unicode="б"/>
<glyph d="M261 489h-217v-489h222l14 3q49 12 56 64v135q0 38 -31 45q31 7 31 49v124q-7 53 -56 65q-9 3 -19 4zM247 288h-114v129h99q7 -1 10 -5q4 -3 5 -11v-113zM247 87q-1 -8 -5 -11q-3 -3 -8 -5h-101v146h114v-130z" glyph-name="uni0432" horiz-adv-x="374" unicode="в"/>
<glyph d="M44 489v-489h89v417h156v72h-245z" glyph-name="uni0433" horiz-adv-x="293" unicode="г"/>
<glyph d="M122 489l-78 -418h-49v-153h93v82h192v-82h93v153h-50v418h-201zM186 417h49v-346h-103z" glyph-name="uni0434" horiz-adv-x="367" unicode="д"/>
<glyph d="M130 282h108v106q0 17 -5.5 23t-23.5 6h-49q-18 0 -24 -6t-6 -23v-106zM135 488h98q94 0 94 -89v-183h-197v-116q0 -17 6 -23t24 -6h46q18 0 24 6t6 24v40h88v-53q0 -88 -93 -88h-96q-93 0 -93 88v311q0 89 93 89z" glyph-name="uni0435" unicode="е"/>
<glyph d="M436 488l-108 -233l108 -255h96l-112 255l112 233h-96zM222 0h90v489h-90v-489zM3 488l112 -233l-112 -255h96l108 255l-108 233h-96z" glyph-name="uni0436" horiz-adv-x="535" unicode="ж"/>
<glyph d="M331 212v-124v-11l-1 -7l-1 -9l-1 -3q-6 -23 -21 -37l-2 -2l-7 -5l-5 -3l-5 -2l-8 -3h-1l-5 -2l-9 -2l-5 -1h-3h-5l-14 -1h-108q-9 0 -17 1l-8 1l-10 2l-4 1l-3 1l-4 2l-4 1l-8 4l-1 2l-4 2l-7 6l-4 5l-3 3l-4 7l-1 2l-2 3l-3 9l-1 4l-3 13l-1 8v11v65h89v-64q1 -8 5 -12 q4 -5 15 -6h1h72h1q12 1 16 6q4 4 6 13v119h-116v71h116v119q-2 9 -6 12q-5 5 -17 6h-72q-12 -1 -16 -6q-4 -3 -5 -12v-64h-89v64q0 90 92 90h108q24 0 42 -6q51 -18 51 -84v-112q-3 -33 -30 -39q27 -6 30 -36z" glyph-name="uni0437" horiz-adv-x="375" unicode="з"/>
<glyph d="M237 489l-104 -297v297h-89v-489h97l106 303v-303h89v489h-99z" glyph-name="uni0438" horiz-adv-x="380" unicode="и"/>
<glyph d="M237 489l-104 -297v297h-89v-489h97l106 303v-303h89v489h-99zM56 619v-68h268v68h-268z" glyph-name="uni0439" horiz-adv-x="380" unicode="й"/>
<glyph d="M44 0h90v489h-90v-489zM258 488l-108 -233l108 -255h96l-112 255l112 233h-96z" glyph-name="uni043A" horiz-adv-x="357" unicode="к"/>
<glyph d="M336 489v-489h-89v417h-114v-335q-3 -81 -93 -81h-60v71h42q12 1 16 6q5 5 6 18v393h292z" glyph-name="uni043B" horiz-adv-x="380" unicode="л"/>
<glyph d="M344 489l-100 -289l-99 289h-101v-489h89v305l68 -199h87l70 203v-309h88v489h-102z" glyph-name="uni043C" horiz-adv-x="490" unicode="м"/>
<glyph d="M247 489v-209h-114v209h-89v-489h89v209h114v-209h89v489h-89z" glyph-name="uni043D" horiz-adv-x="380" unicode="н"/>
<glyph d="M242 101v286q0 18 -6 24t-24 6h-55q-18 0 -23.5 -6t-5.5 -24v-286q0 -18 5.5 -24t23.5 -6h55q18 0 24 6t6 24zM131 488h107q93 0 93 -89v-311q0 -88 -93 -88h-107q-92 0 -92 88v311q0 89 92 89z" glyph-name="uni043E" horiz-adv-x="370" unicode="о"/>
<glyph d="M44 489v-489h89v417h114v-417h89v489h-292z" glyph-name="uni043F" horiz-adv-x="380" unicode="п"/>
<glyph d="M232 102v284q0 18 -6 23.5t-24 5.5h-35q-18 0 -25.5 -8t-7.5 -27v-272q0 -19 7.5 -27t25.5 -8h35q18 0 24 5.5t6 23.5zM196 488h35q91 0 91 -89v-311q0 -88 -91 -88h-35q-49 0 -62 39v-177h-90v626h90v-39q13 39 62 39z" glyph-name="uni0440" unicode="р"/>
<glyph d="M320 334h-89v52q0 18 -6 23.5t-24 5.5h-43q-18 0 -24 -5.5t-6 -23.5v-284q0 -18 6 -23.5t24 -5.5h43q18 0 24 5.5t6 23.5v52h89v-66q0 -88 -94 -88h-95q-93 0 -93 88v311q0 89 93 89h95q94 0 94 -89v-65z" glyph-name="uni0441" horiz-adv-x="351" unicode="с"/>
<glyph d="M4 489v-72h102v-417h89v417h101v72h-292z" glyph-name="uni0442" horiz-adv-x="300" unicode="т"/>
<glyph d="M116 -138h-60v72h41q43 0 52 33l10 41h-49l-102 480h92l74 -409l69 409h91l-103 -535q-22 -91 -115 -91z" glyph-name="uni0443" horiz-adv-x="342" unicode="у"/>
<glyph d="M444 101q0 -18 -6 -24t-23 -6h-85v346h85q17 0 23 -6t6 -24v-286zM156 71q-18 0 -24 6q-5 6 -5 24v286q0 18 5 24q6 6 24 6h85v-346h-85zM330 488v138h-89v-138h-111q-92 0 -92 -89v-311q0 -88 92 -88h111v-137h89v137h110q93 0 93 88v311q0 89 -93 89h-110z" glyph-name="uni0444" horiz-adv-x="571" unicode="ф"/>
<glyph d="M216 250l122 -250h-95l-73 169l-71 -169h-94l120 249l-113 239h96l63 -160l62 160h94z" glyph-name="uni0445" horiz-adv-x="342" unicode="х"/>
<glyph d="M247 489v-418h-114v418h-89v-489h249v-82h93v153h-50v418h-89z" glyph-name="uni0446" horiz-adv-x="380" unicode="ц"/>
<glyph d="M330 489v-489h-89v209h-130q-66 7 -73 70v210h89v-193q1 -7 5 -11q3 -4 12 -5h97v209h89z" glyph-name="uni0447" horiz-adv-x="374" unicode="ч"/>
<glyph d="M450 489v-418h-114v418h-89v-418h-114v418h-89v-489h495v489h-89z" glyph-name="uni0448" horiz-adv-x="583" unicode="ш"/>
<glyph d="M450 489v-418h-114v418h-89v-418h-114v418h-89v-489h452v-82h93v153h-50v418h-89z" glyph-name="uni0449" horiz-adv-x="583" unicode="щ"/>
<glyph d="M247 86q-2 -7 -5 -10t-9 -5h-100v138h91q12 -1 17 -6q6 -6 6 -24v-93zM133 280v209h-135v-72h46v-417h219q64 7 73 67v124q0 89 -93 89h-110z" glyph-name="uni044A" horiz-adv-x="374" unicode="ъ"/>
<glyph d="M425 0h89v489h-89v-489zM247 86q-2 -7 -5 -10t-9 -5h-100v138h91q12 -1 17 -6q6 -6 6 -24v-93zM133 280v209h-89v-489h220q63 7 72 67v124q0 89 -93 89h-110z" glyph-name="uni044B" horiz-adv-x="558" unicode="ы"/>
<glyph d="M233 71h-100v138h91q12 -1 17 -6q6 -6 6 -24v-93q-2 -7 -5 -10t-9 -5zM133 280v209h-89v-489h220q63 7 72 67v124q0 89 -93 89h-110z" glyph-name="uni044C" horiz-adv-x="374" unicode="ь"/>
<glyph d="M31 334v65q0 89 94 89h95q93 0 93 -89v-311q0 -88 -93 -88h-95q-94 0 -94 88v66h89v-52q0 -18 6 -23q6 -6 24 -6h43q18 0 24 6q6 5 6 23v107h-103v71h103v106q0 18 -6 24q-6 5 -24 5h-43q-18 0 -24 -5q-6 -6 -6 -24v-52h-89z" glyph-name="uni044D" horiz-adv-x="351" unicode="э"/>
<glyph d="M425 101q0 -18 -6 -24t-24 -6h-55q-18 0 -24 6q-5 6 -5 24v286q0 18 5 24q6 6 24 6h55q18 0 24 -6t6 -24v-286zM314 488q-92 0 -92 -89v-119h-89v209h-89v-489h89v209h89v-121q0 -88 92 -88h107q93 0 93 88v311q0 89 -93 89h-107z" glyph-name="uni044E" horiz-adv-x="552" unicode="ю"/>
<glyph d="M241 280h-92l-8 1q-4 1 -8 4l-1 1q-5 6 -5 24v78q0 18 5 24q4 4 16 5h93v-137zM126 489q-87 -2 -88 -87v-109q0 -19 4 -33q13 -40 56 -50h2l-100 -210h98l99 209h44v-209h89v489h-204z" glyph-name="uni044F" horiz-adv-x="374" unicode="я"/>
<glyph d="M325 635v-94h-101v94h101zM136 635v-94h-102v94h102zM130 282h108v106q0 17 -5.5 23t-23.5 6h-49q-18 0 -24 -6t-6 -23v-106zM135 488h98q94 0 94 -89v-183h-197v-116q0 -17 6 -23t24 -6h46q18 0 24 6t6 24v40h88v-53q0 -88 -93 -88h-96q-93 0 -93 88v311q0 89 93 89z " glyph-name="uni0451" horiz-adv-x="358" unicode="ё"/>
<glyph d="M231 334v52q0 18 -6 24q-6 5 -24 5h-43q-18 0 -24 -5q-6 -6 -6 -24v-106h103v-71h-103v-107q0 -18 6 -23q6 -6 24 -6h43q18 0 24 6q6 5 6 23v52h89v-66q0 -88 -94 -88h-95q-93 0 -93 88v311q0 89 93 89h95q94 0 94 -89v-65h-89z" glyph-name="uni0454" horiz-adv-x="351" unicode="є"/>
<glyph d="M134 0h-90v488h90v-488zM42 581v89h94v-89h-94z" glyph-name="uni0456" horiz-adv-x="178" unicode="і"/>
<glyph d="M134 0h-90v488h90v-488zM-57 541v94h102v-94h-102zM133 541v94h101v-94h-101z" glyph-name="uni0457" horiz-adv-x="178" unicode="ї"/>
<glyph d="M207 669v-43h-155v-626h90v553h155v51v0v65h-90z" glyph-name="uni0490" horiz-adv-x="301" unicode="Ґ"/>
<glyph d="M199 536v-47h-155v-489h89v417h155v119h-89z" glyph-name="uni0491" horiz-adv-x="292" unicode="ґ"/>
</font>
</defs>
</svg>
